<mxfile host="app.diagrams.net" agent="Mozilla/5.0 (Windows NT 10.0; Win64; x64) AppleWebKit/537.36 (KHTML, like Gecko) Chrome/132.0.0.0 Safari/537.36" version="26.0.11">
  <diagram name="Page-1" id="4wEibylvaJuvfAQjGM_P">
    <mxGraphModel dx="1500" dy="813" grid="0" gridSize="10" guides="1" tooltips="1" connect="1" arrows="1" fold="1" page="1" pageScale="1" pageWidth="827" pageHeight="1169" math="0" shadow="0">
      <root>
        <mxCell id="0" />
        <mxCell id="1" parent="0" />
        <mxCell id="qepRCtNlVhRzanqOlKd6-25" value="" style="edgeStyle=orthogonalEdgeStyle;rounded=0;orthogonalLoop=1;jettySize=auto;html=1;" edge="1" parent="1" source="qepRCtNlVhRzanqOlKd6-1" target="qepRCtNlVhRzanqOlKd6-24">
          <mxGeometry relative="1" as="geometry" />
        </mxCell>
        <mxCell id="qepRCtNlVhRzanqOlKd6-1" value="" style="ellipse;html=1;shape=startState;fillColor=#000000;strokeColor=#ff0000;" vertex="1" parent="1">
          <mxGeometry x="384" y="70" width="30" height="30" as="geometry" />
        </mxCell>
        <mxCell id="qepRCtNlVhRzanqOlKd6-15" style="edgeStyle=orthogonalEdgeStyle;rounded=0;orthogonalLoop=1;jettySize=auto;html=1;entryX=0.5;entryY=0;entryDx=0;entryDy=0;" edge="1" parent="1" source="qepRCtNlVhRzanqOlKd6-3" target="qepRCtNlVhRzanqOlKd6-4">
          <mxGeometry relative="1" as="geometry" />
        </mxCell>
        <mxCell id="qepRCtNlVhRzanqOlKd6-27" value="Yes" style="edgeLabel;html=1;align=center;verticalAlign=middle;resizable=0;points=[];" vertex="1" connectable="0" parent="qepRCtNlVhRzanqOlKd6-15">
          <mxGeometry x="-0.1107" y="-3" relative="1" as="geometry">
            <mxPoint as="offset" />
          </mxGeometry>
        </mxCell>
        <mxCell id="qepRCtNlVhRzanqOlKd6-21" style="edgeStyle=orthogonalEdgeStyle;rounded=0;orthogonalLoop=1;jettySize=auto;html=1;exitX=1;exitY=0.5;exitDx=0;exitDy=0;exitPerimeter=0;entryX=0.5;entryY=0;entryDx=0;entryDy=0;" edge="1" parent="1" source="qepRCtNlVhRzanqOlKd6-3" target="qepRCtNlVhRzanqOlKd6-13">
          <mxGeometry relative="1" as="geometry" />
        </mxCell>
        <mxCell id="qepRCtNlVhRzanqOlKd6-28" value="No" style="edgeLabel;html=1;align=center;verticalAlign=middle;resizable=0;points=[];" vertex="1" connectable="0" parent="qepRCtNlVhRzanqOlKd6-21">
          <mxGeometry x="-0.4152" y="-2" relative="1" as="geometry">
            <mxPoint as="offset" />
          </mxGeometry>
        </mxCell>
        <mxCell id="qepRCtNlVhRzanqOlKd6-3" value="Is Valid" style="strokeWidth=2;html=1;shape=mxgraph.flowchart.decision;whiteSpace=wrap;" vertex="1" parent="1">
          <mxGeometry x="349" y="190" width="100" height="100" as="geometry" />
        </mxCell>
        <mxCell id="qepRCtNlVhRzanqOlKd6-16" style="edgeStyle=orthogonalEdgeStyle;rounded=0;orthogonalLoop=1;jettySize=auto;html=1;exitX=0.5;exitY=1;exitDx=0;exitDy=0;entryX=0.5;entryY=0;entryDx=0;entryDy=0;" edge="1" parent="1" source="qepRCtNlVhRzanqOlKd6-4" target="qepRCtNlVhRzanqOlKd6-5">
          <mxGeometry relative="1" as="geometry" />
        </mxCell>
        <mxCell id="qepRCtNlVhRzanqOlKd6-4" value="&lt;div style=&quot;font-family: Consolas, &amp;quot;Courier New&amp;quot;, monospace; font-size: 14px; line-height: 19px; white-space: pre;&quot;&gt;&lt;span style=&quot;background-color: rgb(255, 255, 255);&quot;&gt;&lt;font style=&quot;color: rgb(0, 0, 0);&quot;&gt;Retrieve Historical Data&lt;/font&gt;&lt;/span&gt;&lt;/div&gt;" style="rounded=1;arcSize=10;whiteSpace=wrap;html=1;align=center;" vertex="1" parent="1">
          <mxGeometry x="100" y="290" width="200" height="40" as="geometry" />
        </mxCell>
        <mxCell id="qepRCtNlVhRzanqOlKd6-17" style="edgeStyle=orthogonalEdgeStyle;rounded=0;orthogonalLoop=1;jettySize=auto;html=1;exitX=0.5;exitY=1;exitDx=0;exitDy=0;entryX=0.5;entryY=0;entryDx=0;entryDy=0;" edge="1" parent="1" source="qepRCtNlVhRzanqOlKd6-5" target="qepRCtNlVhRzanqOlKd6-7">
          <mxGeometry relative="1" as="geometry" />
        </mxCell>
        <mxCell id="qepRCtNlVhRzanqOlKd6-5" value="&lt;div style=&quot;font-family: Consolas, &amp;quot;Courier New&amp;quot;, monospace; font-size: 14px; line-height: 19px; white-space: pre;&quot;&gt;&lt;span style=&quot;background-color: rgb(255, 255, 255);&quot;&gt;&lt;font style=&quot;color: rgb(0, 0, 0);&quot;&gt;Preprocess Data&lt;/font&gt;&lt;/span&gt;&lt;/div&gt;" style="rounded=1;arcSize=10;whiteSpace=wrap;html=1;align=center;" vertex="1" parent="1">
          <mxGeometry x="115" y="370" width="170" height="40" as="geometry" />
        </mxCell>
        <mxCell id="qepRCtNlVhRzanqOlKd6-18" style="edgeStyle=orthogonalEdgeStyle;rounded=0;orthogonalLoop=1;jettySize=auto;html=1;exitX=0.5;exitY=1;exitDx=0;exitDy=0;entryX=0.5;entryY=0;entryDx=0;entryDy=0;" edge="1" parent="1" source="qepRCtNlVhRzanqOlKd6-7" target="qepRCtNlVhRzanqOlKd6-8">
          <mxGeometry relative="1" as="geometry" />
        </mxCell>
        <mxCell id="qepRCtNlVhRzanqOlKd6-7" value="&lt;div style=&quot;font-family: Consolas, &amp;quot;Courier New&amp;quot;, monospace; font-size: 14px; line-height: 19px; white-space: pre;&quot;&gt;&lt;span style=&quot;background-color: rgb(255, 255, 255);&quot;&gt;&lt;font style=&quot;color: rgb(0, 0, 0);&quot;&gt;Load LSTM Model&lt;/font&gt;&lt;/span&gt;&lt;/div&gt;" style="rounded=1;arcSize=10;whiteSpace=wrap;html=1;align=center;" vertex="1" parent="1">
          <mxGeometry x="130" y="450" width="140" height="40" as="geometry" />
        </mxCell>
        <mxCell id="qepRCtNlVhRzanqOlKd6-19" style="edgeStyle=orthogonalEdgeStyle;rounded=0;orthogonalLoop=1;jettySize=auto;html=1;exitX=0.5;exitY=1;exitDx=0;exitDy=0;entryX=0.5;entryY=0;entryDx=0;entryDy=0;" edge="1" parent="1" source="qepRCtNlVhRzanqOlKd6-8" target="qepRCtNlVhRzanqOlKd6-10">
          <mxGeometry relative="1" as="geometry" />
        </mxCell>
        <mxCell id="qepRCtNlVhRzanqOlKd6-8" value="&lt;div style=&quot;font-family: Consolas, &amp;quot;Courier New&amp;quot;, monospace; font-size: 14px; line-height: 19px; white-space: pre;&quot;&gt;&lt;span style=&quot;background-color: rgb(255, 255, 255);&quot;&gt;&lt;font style=&quot;color: rgb(0, 0, 0);&quot;&gt;Generate Price Predictions&lt;/font&gt;&lt;/span&gt;&lt;/div&gt;" style="rounded=1;arcSize=10;whiteSpace=wrap;html=1;align=center;" vertex="1" parent="1">
          <mxGeometry x="90" y="530" width="220" height="40" as="geometry" />
        </mxCell>
        <mxCell id="qepRCtNlVhRzanqOlKd6-20" style="edgeStyle=orthogonalEdgeStyle;rounded=0;orthogonalLoop=1;jettySize=auto;html=1;exitX=0.5;exitY=1;exitDx=0;exitDy=0;entryX=0.5;entryY=0;entryDx=0;entryDy=0;" edge="1" parent="1" source="qepRCtNlVhRzanqOlKd6-10" target="qepRCtNlVhRzanqOlKd6-11">
          <mxGeometry relative="1" as="geometry" />
        </mxCell>
        <mxCell id="qepRCtNlVhRzanqOlKd6-10" value="&lt;div style=&quot;font-family: Consolas, &amp;quot;Courier New&amp;quot;, monospace; font-size: 14px; line-height: 19px; white-space: pre;&quot;&gt;&lt;span style=&quot;background-color: rgb(255, 255, 255);&quot;&gt;&lt;font style=&quot;color: rgb(0, 0, 0);&quot;&gt;Calculate Error Metrics&lt;/font&gt;&lt;/span&gt;&lt;/div&gt;" style="rounded=1;arcSize=10;whiteSpace=wrap;html=1;align=center;" vertex="1" parent="1">
          <mxGeometry x="105" y="610" width="190" height="40" as="geometry" />
        </mxCell>
        <mxCell id="qepRCtNlVhRzanqOlKd6-29" style="edgeStyle=orthogonalEdgeStyle;rounded=0;orthogonalLoop=1;jettySize=auto;html=1;exitX=0.5;exitY=1;exitDx=0;exitDy=0;" edge="1" parent="1" source="qepRCtNlVhRzanqOlKd6-11" target="qepRCtNlVhRzanqOlKd6-12">
          <mxGeometry relative="1" as="geometry" />
        </mxCell>
        <mxCell id="qepRCtNlVhRzanqOlKd6-11" value="&lt;div style=&quot;font-family: Consolas, &amp;quot;Courier New&amp;quot;, monospace; font-size: 14px; line-height: 19px; white-space: pre;&quot;&gt;&lt;span style=&quot;background-color: rgb(255, 255, 255);&quot;&gt;&lt;font style=&quot;color: rgb(0, 0, 0);&quot;&gt;Send Results to Frontend&lt;/font&gt;&lt;/span&gt;&lt;/div&gt;" style="rounded=1;arcSize=10;whiteSpace=wrap;html=1;align=center;" vertex="1" parent="1">
          <mxGeometry x="90" y="690" width="220" height="40" as="geometry" />
        </mxCell>
        <mxCell id="qepRCtNlVhRzanqOlKd6-32" style="edgeStyle=orthogonalEdgeStyle;rounded=0;orthogonalLoop=1;jettySize=auto;html=1;exitX=1;exitY=0.5;exitDx=0;exitDy=0;entryX=0;entryY=0.5;entryDx=0;entryDy=0;" edge="1" parent="1" source="qepRCtNlVhRzanqOlKd6-12" target="qepRCtNlVhRzanqOlKd6-30">
          <mxGeometry relative="1" as="geometry">
            <mxPoint x="520" y="780.25" as="targetPoint" />
          </mxGeometry>
        </mxCell>
        <mxCell id="qepRCtNlVhRzanqOlKd6-12" value="&lt;div style=&quot;font-family: Consolas, &amp;quot;Courier New&amp;quot;, monospace; font-size: 14px; line-height: 19px; white-space: pre;&quot;&gt;&lt;span style=&quot;background-color: rgb(255, 255, 255);&quot;&gt;&lt;font style=&quot;color: rgb(0, 0, 0);&quot;&gt;Render Prediction Visualization&lt;/font&gt;&lt;/span&gt;&lt;/div&gt;" style="rounded=1;arcSize=10;whiteSpace=wrap;html=1;align=center;" vertex="1" parent="1">
          <mxGeometry x="55" y="760" width="290" height="40" as="geometry" />
        </mxCell>
        <mxCell id="qepRCtNlVhRzanqOlKd6-31" style="edgeStyle=orthogonalEdgeStyle;rounded=0;orthogonalLoop=1;jettySize=auto;html=1;entryX=0.5;entryY=0;entryDx=0;entryDy=0;" edge="1" parent="1" source="qepRCtNlVhRzanqOlKd6-13" target="qepRCtNlVhRzanqOlKd6-30">
          <mxGeometry relative="1" as="geometry">
            <mxPoint x="540" y="739.9999999999998" as="targetPoint" />
          </mxGeometry>
        </mxCell>
        <mxCell id="qepRCtNlVhRzanqOlKd6-13" value="Display Error Message" style="rounded=1;arcSize=10;whiteSpace=wrap;html=1;align=center;" vertex="1" parent="1">
          <mxGeometry x="490" y="320" width="100" height="40" as="geometry" />
        </mxCell>
        <mxCell id="qepRCtNlVhRzanqOlKd6-24" value="User Enters Ticker" style="rounded=1;arcSize=10;whiteSpace=wrap;html=1;align=center;" vertex="1" parent="1">
          <mxGeometry x="349" y="130" width="100" height="40" as="geometry" />
        </mxCell>
        <mxCell id="qepRCtNlVhRzanqOlKd6-26" style="edgeStyle=orthogonalEdgeStyle;rounded=0;orthogonalLoop=1;jettySize=auto;html=1;exitX=0.5;exitY=1;exitDx=0;exitDy=0;entryX=0.5;entryY=0;entryDx=0;entryDy=0;entryPerimeter=0;" edge="1" parent="1" source="qepRCtNlVhRzanqOlKd6-24" target="qepRCtNlVhRzanqOlKd6-3">
          <mxGeometry relative="1" as="geometry" />
        </mxCell>
        <mxCell id="qepRCtNlVhRzanqOlKd6-30" value="" style="ellipse;html=1;shape=endState;fillColor=#000000;strokeColor=#ff0000;" vertex="1" parent="1">
          <mxGeometry x="525" y="765" width="30" height="30" as="geometry" />
        </mxCell>
      </root>
    </mxGraphModel>
  </diagram>
</mxfile>
